<svg xmlns="http://www.w3.org/2000/svg" width="240" height="44" viewBox="0 0 240 44" fill="none">
  <g clip-path="url(#clip0_15_1677)">
    <path d="M225.845 32.7203C225.836 32.6017 225.832 32.4789 225.838 32.354C225.851 32.1063 225.862 31.8586 225.873 31.6172C225.73 31.6447 225.588 31.6722 225.444 31.6998C225.182 31.7527 224.919 31.8035 224.656 31.8564C224.953 32.2502 225.373 32.517 225.842 32.7224L225.845 32.7203Z" fill="url(#paint0_linear_15_1677)"/>
    <path d="M213.635 13.5445L213.708 13.1211L213.633 13.5445H213.635Z" fill="url(#paint1_linear_15_1677)"/>
    <path d="M210.519 9.3125C208.359 9.31673 206.2 9.31673 204.043 9.31673C203.994 9.31673 203.942 9.32732 203.89 9.33367C203.879 9.37813 203.869 9.40989 203.864 9.44165C203.541 11.2455 203.21 13.0494 202.898 14.8533C202.379 17.8534 201.871 20.8534 201.361 23.8535C201.275 24.3617 201.206 24.8677 201.13 25.3758C201.111 25.5007 201.1 25.6278 201.085 25.7527C201.051 26.066 201.016 26.3794 200.982 26.6949C200.965 26.697 200.947 26.6991 200.93 26.7012C200.855 26.5001 200.788 26.2947 200.7 26.0999C200.099 24.7957 199.52 23.4767 198.885 22.1936C197.824 20.0489 196.73 17.9211 195.638 15.7933C194.566 13.7015 193.481 11.616 192.405 9.52846C192.332 9.3866 192.226 9.31673 192.039 9.31673C190.002 9.32097 187.968 9.31885 185.933 9.31673C185.748 9.31673 185.563 9.31673 185.397 9.31673C183.753 18.497 182.106 27.6709 180.461 36.8469H187.247C187.257 36.7813 187.268 36.7326 187.277 36.6818C187.957 32.8073 188.644 28.9349 189.318 25.0604C189.46 24.2431 189.565 23.4237 189.682 22.6065C189.772 21.9735 189.854 21.3404 189.948 20.7074C190.004 20.339 190.08 19.9685 190.149 19.581C190.187 19.6445 190.23 19.7038 190.261 19.7694C190.485 20.2945 190.687 20.8323 190.928 21.3468C191.669 22.9199 192.405 24.4951 193.178 26.047C193.918 27.5375 194.704 29.0026 195.47 30.4783C196.013 31.5242 196.556 32.5701 197.096 33.616C197.617 34.6259 198.142 35.6337 198.652 36.65C198.728 36.8003 198.818 36.8617 199.003 36.8617C201.137 36.8554 203.268 36.8575 205.402 36.8575C205.516 36.8575 205.63 36.8575 205.737 36.8575C205.774 36.6542 205.808 36.4658 205.841 36.2753C207.122 29.1233 208.405 21.9713 209.688 14.8194C210.006 13.0473 210.325 11.2752 210.644 9.50305C210.663 9.39295 210.685 9.3125 210.521 9.3125H210.519Z" fill="url(#paint2_linear_15_1677)"/>
    <path d="M139.588 31.2026C138.882 30.9803 138.484 30.4616 138.303 29.784C138.128 29.1319 138.006 28.4608 137.879 27.7917C137.646 26.5913 137.149 25.5623 136.189 24.8276C136.133 24.7853 136.081 24.7387 136.025 24.6921C136.21 24.599 136.385 24.5228 136.553 24.4275C137.153 24.0845 137.771 23.7733 138.342 23.3816C139.302 22.7231 140.088 21.8762 140.766 20.9531C141.067 20.5424 141.33 20.0999 141.545 19.651C141.881 18.9503 142.1 18.2219 142.249 17.4957C142.389 16.8119 142.522 16.1153 142.525 15.4441C142.529 14.4914 142.389 13.5746 141.943 12.7659C141.56 12.0735 141.095 11.4553 140.441 11.0065C139.713 10.5068 138.891 10.149 138.01 9.88645C137.192 9.64297 136.335 9.51382 135.461 9.4376C134.824 9.38255 134.182 9.32962 133.534 9.3275C129.902 9.31691 126.266 9.32115 122.632 9.32115C122.57 9.32115 122.505 9.32962 122.436 9.33385C120.79 18.5183 119.147 27.6859 117.5 36.864H124.632C125.214 33.6226 125.793 30.3896 126.383 27.1037C127.218 27.1566 128.038 27.1989 128.85 27.2667C129.308 27.3048 129.707 27.4953 129.948 27.8362C130.182 28.1665 130.376 28.5476 130.488 28.9477C130.708 29.7354 130.858 30.5505 131.035 31.355C131.28 32.4835 131.601 33.5739 132.159 34.5605C133.125 36.267 134.764 37.0334 136.813 37.1922C137.571 37.2515 138.365 37.1625 139.158 37.1414C139.907 35.2295 140.647 33.341 141.39 31.4482C141.061 31.427 140.776 31.4249 140.503 31.3868C140.193 31.3444 139.881 31.2936 139.59 31.2026H139.588ZM134.348 19.7463C134.055 20.1846 133.614 20.5149 133.138 20.7626C132.417 21.1352 131.681 21.2728 130.925 21.258C129.799 21.2368 128.665 21.2538 127.532 21.2559C127.487 21.2559 127.444 21.2517 127.407 21.2495C127.771 19.2234 128.131 17.2099 128.497 15.171C128.947 15.171 129.356 15.171 129.765 15.171C130.492 15.171 131.222 15.1583 131.948 15.1753C132.615 15.1901 133.274 15.2494 133.874 15.4738C134.559 15.7278 134.983 16.1809 135.078 16.9304C135.201 17.9043 134.947 18.8465 134.348 19.7463Z" fill="url(#paint3_linear_15_1677)"/>
    <path d="M238.019 27.9001C238.038 27.411 238.09 26.9092 238.032 26.4371C237.825 24.7391 236.947 23.4688 235.653 22.4864C234.634 21.7157 233.448 21.1885 232.213 20.7481C230.749 20.2252 229.261 19.7509 227.801 19.2216C227.13 18.9781 226.501 18.6584 226.047 18.1143C225.545 17.5152 225.5 16.8398 225.933 16.0458C226.165 15.6181 226.51 15.2963 226.938 15.0655C227.812 14.5955 228.712 14.5426 229.605 14.5278C229.894 14.5235 230.18 14.551 230.454 14.6019C230.809 14.6675 231.196 14.7077 231.494 14.8707C232.219 15.2667 232.665 15.8743 232.607 16.7911C232.589 17.0684 232.585 17.3415 232.572 17.6295C232.643 17.621 232.701 17.6168 232.757 17.6041C234.079 17.3288 235.401 17.0472 236.723 16.7784C237.709 16.5772 238.697 16.3867 239.685 16.194C239.814 16.1686 239.875 16.1157 239.887 15.9886C239.92 15.6393 239.978 15.29 239.997 14.9427C240.06 13.7761 239.743 12.7578 239.117 11.8834C238.314 10.7612 237.181 10.0011 235.84 9.52477C234.701 9.12038 233.483 8.8769 232.219 8.78375C231.586 8.73717 230.934 8.75834 230.292 8.7414C229.295 8.71388 228.286 8.87267 227.274 9.0484C226.247 9.22836 225.231 9.51842 224.247 9.93975C223.345 10.3251 222.49 10.8374 221.705 11.4705C220.895 12.1205 220.243 12.889 219.702 13.7338C219.05 14.7522 218.613 15.8341 218.432 16.9541C218.327 17.5998 218.249 18.2519 218.239 18.8892C218.208 21.0297 219.235 22.5605 220.787 23.7419C221.36 24.1759 222.017 24.5189 222.669 24.8555C223.946 25.514 225.358 25.929 226.734 26.4117C227.694 26.7483 228.671 27.0553 229.504 27.6016C229.967 27.9043 230.406 28.2346 230.523 28.8423C230.6 29.2424 230.542 29.651 230.393 30.0448C230.198 30.5657 229.745 30.9065 229.244 31.1479C228.544 31.4824 227.819 31.62 227.095 31.6518C226.172 31.692 225.285 31.6116 224.48 31.2771C223.933 31.0484 223.442 30.7478 223.128 30.265C222.803 29.7675 222.62 29.1958 222.654 28.5458C222.667 28.2981 222.678 28.0504 222.688 27.8091C222.546 27.8366 222.404 27.8641 222.26 27.8916C221.162 28.1097 220.062 28.3257 218.964 28.5458C217.918 28.7533 216.874 28.9672 215.827 29.1704C215.405 29.2509 215.341 29.3144 215.362 29.7124C215.362 29.7484 215.369 29.7865 215.362 29.8225C215.235 30.5932 215.317 31.3194 215.496 32.0181C215.883 33.5277 216.826 34.6328 218.058 35.4861C219.289 36.3393 220.712 36.8856 222.286 37.146C222.809 37.2328 223.334 37.3323 223.875 37.3492C224.927 37.381 225.991 37.3662 227.052 37.3556C227.44 37.3514 227.834 37.3302 228.228 37.2772C229.136 37.1502 230.042 36.93 230.936 36.6146C231.974 36.2483 232.975 35.7952 233.905 35.1304C234.91 34.4127 235.769 33.5827 236.436 32.5643C237.211 31.3829 237.664 30.1316 237.926 28.8423C237.991 28.5289 238.012 28.2134 238.025 27.9022L238.019 27.9001Z" fill="url(#paint4_linear_15_1677)"/>
    <path d="M111.008 14.9866C111.326 13.2082 111.645 11.4297 111.964 9.65125C112.024 9.31673 112.024 9.31462 111.686 9.31462C105.751 9.31462 99.8153 9.31462 93.8799 9.3125C93.7141 9.3125 93.6409 9.33791 93.6065 9.52846C91.9919 18.5669 90.3708 27.6074 88.7497 36.6458C88.7368 36.7135 88.726 36.7813 88.7109 36.8575H95.8519C96.4956 33.2222 97.1587 29.5976 97.7959 25.9771H107.234C107.593 23.9742 107.949 21.9883 108.304 20.0129H98.8766C99.135 18.425 99.4773 16.8498 99.6775 15.2788H110.956C110.973 15.1878 110.991 15.0883 111.008 14.9888V14.9866Z" fill="url(#paint5_linear_15_1677)"/>
    <path d="M173.059 15.3244C173.416 13.3321 173.772 11.3546 174.127 9.375H155.509C155.154 11.3588 154.799 13.3405 154.441 15.3244H173.059Z" fill="url(#paint6_linear_15_1677)"/>
    <path d="M150.574 36.8999H169.461C169.821 34.897 170.176 32.9111 170.531 30.9336H151.644C151.287 32.9217 150.932 34.9118 150.574 36.8999Z" fill="url(#paint7_linear_15_1677)"/>
    <path d="M168.913 26.0324C169.272 24.0337 169.628 22.0457 169.983 20.0703H153.593C153.236 22.0584 152.881 24.0443 152.523 26.0324H168.913Z" fill="url(#paint8_linear_15_1677)"/>
    <path d="M65.8745 8.85485C65.9563 10.0384 65.9563 11.169 65.9563 11.169C65.9563 11.169 67.599 11.0208 69.7496 11.1541C69.6743 15.1282 68.8455 18.9836 67.2782 22.6231C65.6916 26.3134 63.4182 29.6269 60.5247 32.4724C57.6313 35.3179 54.2622 37.5516 50.5098 39.1141C46.6239 40.7295 42.4991 41.5489 38.2451 41.5489C33.9911 41.5489 29.8641 40.7295 25.9804 39.1141C22.228 37.5537 18.8588 35.3201 15.9654 32.4724C13.072 29.6269 10.8008 26.3134 9.21197 22.6231C7.64686 18.9836 6.81587 15.1282 6.74052 11.1541C8.88905 11.0208 10.5338 11.169 10.5338 11.169C10.5338 11.169 10.5338 10.0384 10.6156 8.85485C3.94614 7.71367 0 10.4216 0 10.4216C0 10.4216 0 10.7413 0.67599 12.452C1.789 11.9566 3.03334 11.6369 4.254 11.4336C4.72547 29.4723 19.791 44.0028 38.2451 44.0028C56.6992 44.0028 71.7647 29.4723 72.2362 11.4336C73.4547 11.6369 74.699 11.9566 75.8142 12.452C76.4902 10.7413 76.4902 10.4216 76.4902 10.4216C76.4902 10.4216 72.544 7.71579 65.8767 8.85485H65.8745Z" fill="url(#paint9_linear_15_1677)"/>
    <path d="M43.07 20.5264H45.2594L53.0871 6.99952H49.4467L52.0559 0H45.2594L42.168 12.0999H46.4521L43.07 20.5264Z" fill="url(#paint10_linear_15_1677)"/>
    <path d="M24.3005 20.5264H26.4921L34.3176 6.99952H30.6772L33.2864 0H26.4921L23.3984 12.0999H27.6826L24.3005 20.5264Z" fill="url(#paint11_linear_15_1677)"/>
  </g>
  <defs>
    <linearGradient id="paint0_linear_15_1677" x1="223.541" y1="0.631713" x2="225.771" y2="42.2094" gradientUnits="userSpaceOnUse">
      <stop stop-color="#FDF75E"/>
      <stop offset="0.33" stop-color="#EBABAB"/>
      <stop offset="0.66" stop-color="#63E0F2"/>
      <stop offset="1" stop-color="#A270F8"/>
    </linearGradient>
    <linearGradient id="paint1_linear_15_1677" x1="212.998" y1="1.19693" x2="215.228" y2="42.7746" gradientUnits="userSpaceOnUse">
      <stop stop-color="#FDF75E"/>
      <stop offset="0.33" stop-color="#EBABAB"/>
      <stop offset="0.66" stop-color="#63E0F2"/>
      <stop offset="1" stop-color="#A270F8"/>
    </linearGradient>
    <linearGradient id="paint2_linear_15_1677" x1="194.396" y1="2.19653" x2="196.626" y2="43.7764" gradientUnits="userSpaceOnUse">
      <stop stop-color="#FDF75E"/>
      <stop offset="0.33" stop-color="#EBABAB"/>
      <stop offset="0.66" stop-color="#63E0F2"/>
      <stop offset="1" stop-color="#A270F8"/>
    </linearGradient>
    <linearGradient id="paint3_linear_15_1677" x1="128.882" y1="5.71129" x2="131.112" y2="47.289" gradientUnits="userSpaceOnUse">
      <stop stop-color="#FDF75E"/>
      <stop offset="0.33" stop-color="#EBABAB"/>
      <stop offset="0.66" stop-color="#63E0F2"/>
      <stop offset="1" stop-color="#A270F8"/>
    </linearGradient>
    <linearGradient id="paint4_linear_15_1677" x1="226.421" y1="0.480023" x2="228.652" y2="42.0577" gradientUnits="userSpaceOnUse">
      <stop stop-color="#FDF75E"/>
      <stop offset="0.33" stop-color="#EBABAB"/>
      <stop offset="0.66" stop-color="#63E0F2"/>
      <stop offset="1" stop-color="#A270F8"/>
    </linearGradient>
    <linearGradient id="paint5_linear_15_1677" x1="99.4708" y1="7.28632" x2="101.701" y2="48.8662" gradientUnits="userSpaceOnUse">
      <stop stop-color="#FDF75E"/>
      <stop offset="0.33" stop-color="#EBABAB"/>
      <stop offset="0.66" stop-color="#63E0F2"/>
      <stop offset="1" stop-color="#A270F8"/>
    </linearGradient>
    <linearGradient id="paint6_linear_15_1677" x1="163.811" y1="3.83636" x2="166.041" y2="45.4141" gradientUnits="userSpaceOnUse">
      <stop stop-color="#FDF75E"/>
      <stop offset="0.33" stop-color="#EBABAB"/>
      <stop offset="0.66" stop-color="#63E0F2"/>
      <stop offset="1" stop-color="#A270F8"/>
    </linearGradient>
    <linearGradient id="paint7_linear_15_1677" x1="158.897" y1="4.1" x2="161.127" y2="45.6777" gradientUnits="userSpaceOnUse">
      <stop stop-color="#FDF75E"/>
      <stop offset="0.33" stop-color="#EBABAB"/>
      <stop offset="0.66" stop-color="#63E0F2"/>
      <stop offset="1" stop-color="#A270F8"/>
    </linearGradient>
    <linearGradient id="paint8_linear_15_1677" x1="160.198" y1="4.03028" x2="162.429" y2="45.608" gradientUnits="userSpaceOnUse">
      <stop stop-color="#FDF75E"/>
      <stop offset="0.33" stop-color="#EBABAB"/>
      <stop offset="0.66" stop-color="#63E0F2"/>
      <stop offset="1" stop-color="#A270F8"/>
    </linearGradient>
    <linearGradient id="paint9_linear_15_1677" x1="38.2515" y1="10.5719" x2="40.4818" y2="52.1517" gradientUnits="userSpaceOnUse">
      <stop stop-color="#FDF75E"/>
      <stop offset="0.33" stop-color="#EBABAB"/>
      <stop offset="0.66" stop-color="#63E0F2"/>
      <stop offset="1" stop-color="#A270F8"/>
    </linearGradient>
    <linearGradient id="paint10_linear_15_1677" x1="47.6555" y1="10.0674" x2="49.8858" y2="51.6451" gradientUnits="userSpaceOnUse">
      <stop stop-color="#FDF75E"/>
      <stop offset="0.33" stop-color="#EBABAB"/>
      <stop offset="0.66" stop-color="#63E0F2"/>
      <stop offset="1" stop-color="#A270F8"/>
    </linearGradient>
    <linearGradient id="paint11_linear_15_1677" x1="28.942" y1="11.0709" x2="31.1722" y2="52.6508" gradientUnits="userSpaceOnUse">
      <stop stop-color="#FDF75E"/>
      <stop offset="0.33" stop-color="#EBABAB"/>
      <stop offset="0.66" stop-color="#63E0F2"/>
      <stop offset="1" stop-color="#A270F8"/>
    </linearGradient>
    <clipPath id="clip0_15_1677">
      <rect width="240" height="44" fill="white"/>
    </clipPath>
  </defs>
</svg>