<svg xmlns="http://www.w3.org/2000/svg" width="32" height="19" viewBox="0 0 32 19" fill="none">
<path fill-rule="evenodd" clip-rule="evenodd" d="M3.75523 11.3559C3.43161 11.672 3.43161 12.1844 3.75523 12.5004L9.02895 17.6504C9.35257 17.9664 9.87727 17.9664 10.2009 17.6504L15.4746 12.5004C15.7982 12.1844 15.7982 11.672 15.4746 11.3559C15.151 11.0399 14.6263 11.0399 14.3027 11.3559L10.4436 15.1245L10.4436 1.99217C10.4436 1.54523 10.0726 1.18292 9.61492 1.18292C9.15725 1.18292 8.78624 1.54523 8.78624 1.99216L8.78624 15.1245L4.92717 11.3559C4.60355 11.0399 4.07885 11.0399 3.75523 11.3559Z" fill="white"/>
<path fill-rule="evenodd" clip-rule="evenodd" d="M28.0963 7.29639C28.42 6.98037 28.42 6.46798 28.0963 6.15196L22.8226 1.00198C22.499 0.68595 21.9743 0.68595 21.6507 1.00198L16.377 6.15196C16.0533 6.46799 16.0533 6.98037 16.377 7.2964C16.7006 7.61242 17.2253 7.61242 17.5489 7.2964L21.408 3.52788L21.408 16.6602C21.408 17.1071 21.779 17.4694 22.2366 17.4694C22.6943 17.4694 23.0653 17.1071 23.0653 16.6602L23.0653 3.52788L26.9244 7.2964C27.248 7.61242 27.7727 7.61242 28.0963 7.29639Z" fill="white"/>
</svg>